<?xml version="1.0" standalone="no"?>
<!DOCTYPE svg PUBLIC "-//W3C//DTD SVG 20010904//EN"
 "http://www.w3.org/TR/2001/REC-SVG-20010904/DTD/svg10.dtd">
<svg version="1.0" xmlns="http://www.w3.org/2000/svg"
 width="680" height="1244" viewBox="1068 176 680 1244"
 preserveAspectRatio="xMidYMid meet">

<g transform="translate(0.000000,1536.000000) scale(0.100000,-0.100000)"
fill="#000000" stroke="none">
<path d="M13492 13002 c-2 -7 -2 -33 1 -57 l5 -45 -119 0 -119 0 0 -60 0 -60
-60 0 -60 0 0 -60 0 -60 -60 0 -60 0 0 -60 0 -60 -60 0 -60 0 0 -115 0 -115
-60 0 -60 0 0 -115 0 -115 -55 0 -55 0 0 -710 0 -710 60 0 60 0 0 -55 0 -55
55 0 54 0 3 -57 3 -58 58 -3 57 -3 0 -54 0 -55 120 0 120 0 0 -60 0 -60 60 0
60 0 0 -235 0 -235 -60 0 -60 0 0 -60 0 -60 -120 0 -120 0 0 -55 0 -55 -175 0
-175 0 0 -59 c0 -41 4 -60 14 -64 8 -3 89 -3 180 0 l166 6 0 56 0 56 52 -4
c28 -2 107 0 175 4 l123 7 0 54 0 54 60 0 60 0 0 175 0 175 58 0 57 0 -3 -55
-4 -55 61 0 61 0 0 -60 0 -60 60 0 60 0 0 -55 0 -54 58 -3 57 -3 -3 -57 -4
-58 186 0 186 0 0 -60 0 -60 56 0 56 0 -4 55 -3 55 62 0 62 0 -3 -54 -3 -53
96 -7 c53 -3 131 -6 174 -6 l77 0 0 -55 0 -55 180 0 180 0 0 -60 0 -60 54 0
54 0 7 -115 7 -115 54 0 54 0 0 -295 0 -295 60 0 60 0 1 -437 c1 -241 2 -450
3 -464 1 -25 5 -27 58 -33 l58 -7 0 -114 0 -115 55 0 55 0 0 -143 c0 -79 3
-185 6 -235 l7 -92 53 0 54 0 0 -180 0 -180 54 0 54 0 7 -115 7 -115 54 0 54
0 0 -295 0 -295 -55 0 -55 0 0 -55 0 -55 -60 0 -60 0 0 -55 0 -55 -175 0 -175
0 0 110 0 110 60 0 60 0 0 -55 0 -55 60 0 60 0 0 55 0 55 55 0 55 0 0 60 0 60
60 0 60 0 0 120 0 120 -60 0 -60 0 0 -114 0 -113 -82 -6 c-46 -4 -98 -7 -115
-7 l-33 0 0 120 0 120 -115 0 -115 0 2 118 2 117 5 -104 c5 -90 8 -102 20 -88
7 9 17 14 22 11 5 -3 9 -2 9 3 0 4 14 9 32 10 17 1 35 8 38 14 5 6 17 8 29 4
12 -4 21 -2 21 4 0 18 25 7 32 -14 5 -17 6 -16 7 7 1 26 -1 27 -56 30 l-58 3
-5 58 c-3 31 -2 57 2 57 5 0 8 54 8 120 l0 120 -55 0 -55 0 0 83 c0 46 -3 125
-6 175 l-7 92 -53 0 -54 0 0 120 0 120 -55 0 -55 0 -1 78 c-8 576 -9 877 -3
969 l6 112 51 3 52 3 3 125 c2 69 0 175 -3 235 l-7 110 -47 -3 -48 -4 -7 -81
c-3 -45 -6 -148 -6 -229 l0 -148 -60 0 -60 0 0 -645 0 -645 -1055 0 -1055 0 0
470 0 470 -60 0 -60 0 0 115 0 115 55 0 54 0 3 118 3 117 118 3 117 3 0 54 0
55 -60 0 -60 0 0 60 0 60 -120 0 -120 0 0 -60 0 -60 -60 0 -60 0 0 -60 0 -60
-52 0 -53 0 0 -50 0 -50 47 0 47 0 4 48 3 47 2 -52 2 -53 -55 0 -55 0 0 -60 0
-60 -54 0 -54 0 -7 -121 -8 -121 -52 6 -53 6 -7 -120 -7 -120 -53 0 -52 0 -7
-92 c-3 -50 -6 -129 -6 -175 l0 -83 -49 0 -48 0 -7 -92 c-3 -50 -6 -131 -6
-180 l0 -88 -55 0 -55 0 0 -45 0 -45 58 -2 57 -1 -60 -6 -60 -6 -3 -297 -2
-298 60 0 60 0 0 -60 0 -60 54 0 54 0 7 -112 c3 -62 5 -167 3 -233 l-3 -120
-57 -3 -58 -3 0 66 0 66 -57 -3 -58 -3 -3 -117 -3 -118 61 0 60 0 0 -115 0
-115 -60 0 -60 0 0 54 0 53 -82 6 c-46 4 -125 7 -175 7 l-93 0 0 55 0 55 -60
0 -60 0 0 55 0 55 -47 1 c-27 1 -51 1 -54 1 -16 -2 -25 347 -12 506 l6 82 48
0 49 0 2 148 c1 81 2 248 2 372 1 124 2 348 4 498 l2 272 60 0 60 0 0 115 0
114 58 3 57 3 3 178 2 177 55 0 55 0 0 175 0 175 60 0 60 0 0 120 0 120 59 0
58 0 6 83 c4 45 7 148 7 230 l0 147 55 0 55 0 0 60 0 60 60 0 60 0 0 60 0 60
115 0 115 0 0 60 0 60 -115 0 -115 0 0 -60 0 -60 -60 0 -60 0 0 -60 0 -60 -60
0 -60 0 0 -55 0 -55 -60 0 -60 0 0 -180 0 -180 -60 0 -60 0 0 -175 0 -175 -60
0 -61 0 2 -172 1 -173 -56 -3 -56 -3 0 -174 0 -174 -62 -3 -63 -3 0 -115 0
-115 -57 -3 -58 -3 0 -524 0 -525 -55 0 -55 0 0 -120 0 -120 -60 0 -60 0 0
-350 0 -350 115 0 115 0 0 -60 0 -60 60 0 60 0 0 -55 0 -54 58 -3 57 -3 3 -58
3 -57 234 0 235 0 0 60 0 60 60 0 60 0 0 55 0 55 60 0 60 0 0 -175 0 -175 115
0 115 0 0 -410 0 -409 -57 -3 -58 -3 -3 -117 -3 -118 -54 0 -55 0 0 -640 0
-640 -60 0 -60 0 0 -355 0 -355 60 0 60 0 0 -55 0 -55 585 0 585 0 0 230 0
229 -57 3 -58 3 -3 58 -3 57 -54 0 -55 0 0 120 0 120 -60 0 -60 0 0 175 0 175
60 0 60 0 0 175 0 175 60 0 60 0 0 175 0 175 55 0 55 0 0 235 0 235 55 0 55 0
0 120 0 120 60 0 60 0 0 175 0 175 60 0 60 0 0 60 0 60 120 0 120 0 0 -175 0
-175 60 0 60 0 -2 -237 -3 -237 -57 3 -58 2 0 -235 0 -236 60 0 60 0 0 -120 0
-120 60 0 60 0 0 -350 0 -350 -60 0 -60 0 0 -235 0 -235 59 0 60 0 4 48 c2 26
2 -1 -1 -60 l-5 -108 292 0 291 0 0 -55 0 -55 530 0 530 0 0 171 0 172 -82 -5
c-46 -2 -73 -3 -60 -1 20 4 22 10 22 64 l0 59 -60 0 -60 0 0 60 0 60 -115 0
-115 0 0 60 0 60 -115 0 -115 0 0 60 0 60 -60 0 -60 0 0 465 0 465 60 0 60 0
0 235 0 235 55 0 55 0 0 410 0 410 60 0 60 0 0 120 0 120 235 0 235 0 0 55 0
54 58 3 57 3 3 58 3 57 54 0 55 0 0 350 0 350 -55 0 -55 0 -1 105 c-1 58 -2
111 -3 118 -1 8 -22 13 -58 15 l-58 3 0 234 0 235 -60 0 -60 0 0 235 0 235
-55 0 -55 0 0 115 0 115 -60 0 -60 0 0 410 0 410 -60 0 -60 0 0 295 0 295 -61
0 -61 0 7 115 7 115 -61 0 -61 0 0 60 0 60 -60 0 -60 0 0 60 0 60 -180 0 -180
0 0 60 0 60 -115 0 -115 0 0 33 c0 69 7 77 66 77 l54 0 0 60 0 60 115 0 115 0
0 60 0 60 60 0 60 0 0 55 0 55 60 0 59 0 3 118 3 117 58 3 57 3 0 114 0 114
55 3 c30 2 55 6 55 11 0 4 0 374 0 822 l0 815 -55 0 -55 0 0 115 0 115 -60 0
-60 0 0 115 0 115 -60 0 -60 0 0 60 0 60 -60 0 -60 0 0 60 0 60 -60 0 -60 0 0
60 0 60 -115 0 -115 0 0 55 0 55 -67 1 c-38 1 -301 2 -587 3 -416 1 -520 -2
-524 -12z m926 -112 l252 0 0 -55 0 -55 115 0 115 0 0 -60 0 -60 60 0 60 0 0
-60 0 -60 60 0 60 0 0 -115 0 -115 60 0 60 0 0 -115 0 -114 58 -3 57 -3 0
-350 0 -350 -57 -3 -58 -3 0 -54 0 -55 -120 0 -120 0 0 -300 0 -300 120 0 120
0 0 180 0 180 -60 0 -61 0 3 58 3 57 63 3 62 3 0 54 0 55 33 -1 c30 -2 30 -2
5 -6 -26 -4 -28 -8 -28 -54 l0 -49 40 0 40 0 2 58 1 57 7 -65 c10 -83 12 -559
3 -667 l-6 -83 -53 0 -54 0 0 -120 0 -120 -60 0 -60 0 -2 -80 c-1 -44 -2 -95
-2 -112 -1 -33 -2 -33 -56 -38 l-55 -5 -3 -57 -3 -58 -114 0 -115 0 0 -60 0
-60 -230 0 -229 0 -3 58 c-2 42 -7 57 -18 58 -8 1 -63 2 -122 3 l-108 1 0 54
0 54 -115 7 -115 7 0 54 0 54 -67 1 c-38 0 -89 0 -115 -1 l-48 -1 0 60 0 61
-60 0 -60 0 0 115 0 115 -60 0 -60 0 0 60 0 60 -60 0 -60 0 0 -55 0 -55 -115
0 -115 0 0 55 0 55 -65 0 -65 0 0 60 0 60 -55 0 -55 0 0 290 0 290 68 1 c37 1
103 2 147 3 135 3 135 3 135 -59 l0 -53 43 -3 c75 -7 77 -5 77 62 l0 59 -60 0
-60 0 0 55 0 55 -52 2 c-29 1 -108 1 -175 0 l-123 -1 0 354 0 355 55 0 55 0 0
115 0 115 60 0 60 0 0 115 0 115 60 0 60 0 0 60 0 60 60 0 60 0 0 60 0 60 120
0 120 0 0 55 0 54 113 3 c61 2 211 2 332 1 121 -1 334 -2 473 -3z m-240 -3177
c-21 -2 -55 -2 -75 0 -21 2 -4 4 37 4 41 0 58 -2 38 -4z m1149 -1259 c-3 -3
-12 -4 -19 -1 -8 3 -5 6 6 6 11 1 17 -2 13 -5z m-2537 -719 l0 -115 55 0 55 0
0 -350 0 -350 -55 0 -55 0 0 -235 0 -235 -60 0 -60 0 0 -295 0 -295 -120 0
-120 0 0 60 0 60 -55 0 -55 0 0 55 0 54 -57 3 -58 3 -3 293 -2 292 60 0 60 0
0 175 0 175 55 0 55 0 0 175 0 175 60 0 60 0 0 120 0 120 60 0 60 0 0 115 0
115 60 0 60 0 0 -115z m2580 -3227 l0 -408 -55 0 -55 0 0 -115 0 -115 -60 0
-60 0 0 -590 0 -590 60 7 60 6 0 -62 0 -61 60 0 60 0 0 -60 0 -60 115 0 115 0
0 -60 0 -60 115 0 115 0 0 -60 c0 -58 1 -60 28 -61 22 -1 23 -2 5 -6 -19 -4
-22 -12 -25 -56 l-3 -52 -60 0 -60 0 -3 58 -3 57 -52 0 -52 0 0 -57 0 -58
-225 -3 c-278 -4 -491 5 -489 22 1 6 1 30 0 54 l-1 42 -230 0 -230 0 0 180 0
180 60 0 60 0 0 -55 0 -55 50 0 50 0 0 171 0 171 -49 -4 -49 -3 -6 46 c-3 25
-6 157 -6 292 1 136 -2 252 -6 258 -3 6 -27 9 -53 8 l-46 -3 0 344 0 345 53 3
52 3 -2 177 -3 177 -52 3 -53 3 0 175 0 174 415 0 415 0 0 53 0 52 50 0 50 0
0 -407z m-1650 127 l0 -175 -55 0 -55 0 0 -180 0 -180 -60 0 -60 0 0 -170 0
-170 -55 0 -55 0 0 -180 0 -180 -60 0 -60 0 0 -180 0 -180 -53 6 -54 6 -6 -93
c-4 -50 -7 -156 -7 -235 l0 -143 56 -3 57 -3 2 -55 c1 -30 2 -83 3 -117 l2
-63 55 0 54 0 3 -57 3 -58 58 -3 57 -3 0 -172 0 -172 -468 0 -467 0 -3 58 -3
57 -55 0 -54 0 2 178 3 177 51 -3 51 -4 6 93 c4 51 7 341 7 646 l0 553 55 0
55 0 0 230 0 230 60 0 60 0 0 353 c0 195 3 357 7 360 3 4 213 7 465 7 l458 0
0 -175z m-1153 -897 c-2 -24 -4 -5 -4 42 0 47 2 66 4 43 2 -24 2 -62 0 -85z
m2733 -1657 c0 -5 7 -12 16 -15 14 -5 15 -4 4 9 -10 12 -10 15 4 15 17 0 18
-1 20 -40 1 -22 -4 -25 -38 -28 -21 -2 -36 1 -33 5 3 5 -11 8 -31 6 -32 -2
-38 1 -39 17 -1 11 2 18 8 15 5 -4 9 0 9 7 0 9 14 14 40 15 22 1 40 -2 40 -6z
m80 5 c0 -3 -4 -8 -10 -11 -5 -3 -10 -1 -10 4 0 6 5 11 10 11 6 0 10 -2 10 -4z
m67 -2 c-3 -3 -12 -4 -19 -1 -8 3 -5 6 6 6 11 1 17 -2 13 -5z m-140 -74 c147
0 269 -2 271 -5 3 -3 -119 -5 -271 -5 l-277 0 2 38 c1 36 1 36 5 5 l4 -32 266
-1z m646 -7 c-7 -2 -21 -2 -30 0 -10 3 -4 5 12 5 17 0 24 -2 18 -5z"/>
<path d="M13730 11316 l0 -53 92 -7 c50 -3 153 -6 228 -6 l137 0 6 -82 c4 -46
7 -179 7 -295 l0 -213 120 0 120 0 0 180 0 180 115 0 115 0 0 114 0 113 -82 6
c-46 4 -122 7 -170 7 l-88 0 0 55 0 55 -300 0 -300 0 0 -54z m837 -153 c-2
-16 -4 -3 -4 27 0 30 2 43 4 28 2 -16 2 -40 0 -55z m-127 -83 l0 -60 -54 0
-54 0 -4 53 c-3 28 -3 55 -1 60 2 4 29 7 59 7 l54 0 0 -60z"/>
<path d="M12900 11080 l0 -60 60 0 60 0 2 -117 c1 -65 2 -145 3 -178 l3 -60
38 -2 c22 -1 47 -2 57 -2 14 -1 17 -11 17 -56 l0 -55 60 0 60 0 0 115 0 115
-60 0 -60 0 0 120 0 120 -55 0 -55 0 -2 33 c0 17 -2 37 -3 42 -2 6 -3 18 -4
28 -1 14 -11 17 -61 17 l-60 0 0 -60z"/>
<path d="M13712 10135 c0 -16 2 -22 5 -12 2 9 2 23 0 30 -3 6 -5 -1 -5 -18z"/>
<path d="M14968 4083 c7 -3 16 -2 19 1 4 3 -2 6 -13 5 -11 0 -14 -3 -6 -6z"/>
<path d="M15770 2240 l-45 -7 53 -1 c29 -1 52 2 52 8 0 6 -3 9 -7 8 -5 0 -28
-4 -53 -8z"/>
<path d="M12908 3980 l3 -110 55 0 54 0 0 110 0 110 -57 0 -58 0 3 -110z m24
4 c-4 -24 -3 -25 17 -13 11 8 21 17 21 22 0 4 5 5 11 1 6 -3 14 -2 18 4 4 6 6
-16 5 -49 -2 -65 -14 -95 -15 -38 0 28 -2 30 -9 14 -8 -19 -9 -19 -9 -1 -1 15
-4 16 -16 6 -13 -11 -15 -10 -9 6 5 18 5 18 -9 1 -14 -16 -15 -13 -14 32 0 28
3 48 7 46 4 -3 5 -16 2 -31z m37 -87 c9 -11 5 -13 -17 -11 -38 3 -40 4 -17 14
11 5 21 9 21 9 1 1 7 -5 13 -12z"/>
<path d="M13268 3925 l4 -55 51 0 52 0 0 55 0 55 -55 0 -55 0 3 -55z"/>
<path d="M15238 2053 c6 -2 18 -2 25 0 6 3 1 5 -13 5 -14 0 -19 -2 -12 -5z"/>
<path d="M15310 2046 c0 -2 7 -7 16 -10 8 -3 12 -2 9 4 -6 10 -25 14 -25 6z"/>
<path d="M13260 8145 l0 -55 60 0 60 0 0 55 0 55 -60 0 -60 0 0 -55z"/>
<path d="M15972 6290 c0 -14 2 -19 5 -12 2 6 2 18 0 25 -3 6 -5 1 -5 -13z"/>
<path d="M15970 6230 c0 -16 7 -20 33 -20 22 0 28 3 18 9 -8 5 -21 7 -29 3
-11 -4 -14 -1 -9 11 3 9 2 17 -3 17 -6 0 -10 -9 -10 -20z"/>
<path d="M16080 6069 c0 -5 5 -7 10 -4 6 3 10 8 10 11 0 2 -4 4 -10 4 -5 0
-10 -5 -10 -11z"/>
<path d="M16083 6030 c1 -11 5 -20 9 -20 3 0 6 9 5 20 -1 11 -5 20 -9 20 -3 0
-6 -9 -5 -20z"/>
<path d="M16085 5990 c3 -5 8 -10 11 -10 2 0 4 5 4 10 0 6 -5 10 -11 10 -5 0
-7 -4 -4 -10z"/>
</g>
</svg>
