<svg xmlns="http://www.w3.org/2000/svg" viewBox="0 0 2816 1536" shape-rendering="crispEdges">
  <!-- Head (y=235–640, centered at x=1408) -->
  <rect x="1272" y="235" width="272" height="406" fill="#C8956A"/>
  <rect x="1272" y="235" width="74" height="406" fill="#D4A878"/>
  <rect x="1420" y="235" width="124" height="406" fill="#AA6E44"/>
  <!-- Ears -->
  <rect x="1150" y="398" width="58" height="52" fill="#C8956A"/>
  <rect x="1608" y="398" width="58" height="52" fill="#C8956A"/>
  <!-- Neck -->
  <rect x="1342" y="640" width="132" height="76" fill="#C8956A"/>
  <!-- Shoulder bar -->
  <rect x="1150" y="694" width="516" height="52" fill="#C8956A"/>
  <!-- Torso -->
  <rect x="1244" y="744" width="328" height="220" fill="#C8956A"/>
  <rect x="1440" y="744" width="132" height="220" fill="#AA6E44"/>
  <!-- Left upper arm -->
  <rect x="1150" y="700" width="106" height="236" fill="#C8956A"/>
  <rect x="1202" y="700" width="54" height="236" fill="#AA6E44"/>
  <!-- Right upper arm -->
  <rect x="1560" y="700" width="106" height="236" fill="#C8956A"/>
  <!-- Left forearm -->
  <rect x="1162" y="936" width="88" height="188" fill="#C8956A"/>
  <!-- Right forearm -->
  <rect x="1566" y="936" width="88" height="188" fill="#C8956A"/>
  <!-- Left hand -->
  <rect x="1152" y="1116" width="98" height="58" fill="#C8956A"/>
  <!-- Right hand -->
  <rect x="1566" y="1116" width="98" height="58" fill="#C8956A"/>
  <!-- Hips -->
  <rect x="1210" y="964" width="396" height="52" fill="#C8956A"/>
  <!-- Left thigh -->
  <rect x="1210" y="1014" width="182" height="196" fill="#C8956A"/>
  <rect x="1340" y="1014" width="52" height="196" fill="#AA6E44"/>
  <!-- Right thigh -->
  <rect x="1424" y="1014" width="182" height="196" fill="#C8956A"/>
  <!-- Left shin -->
  <rect x="1220" y="1210" width="154" height="150" fill="#C8956A"/>
  <!-- Right shin -->
  <rect x="1432" y="1210" width="154" height="150" fill="#C8956A"/>
</svg>
